<svg xmlns="http://www.w3.org/2000/svg" viewBox="0 0 24 24" fill="currentColor">
  <path fill-rule="evenodd" clip-rule="evenodd" d="M7.25285 4.25547C8.09403 2.47951 9.90263 1.25 12 1.25C14.0974 1.25 15.906 2.47951 16.7471 4.25547C16.831 4.25184 16.9153 4.25 17 4.25C20.1756 4.25 22.75 6.82436 22.75 10C22.75 12.1806 21.5363 14.0762 19.75 15.0508L19.75 18.052C19.75 18.9505 19.7501 19.6997 19.6701 20.2945C19.5857 20.9223 19.4 21.4891 18.9445 21.9445C18.4891 22.4 17.9223 22.5857 17.2945 22.6701C16.6997 22.7501 15.9505 22.75 15.052 22.75H8.94801C8.04952 22.75 7.3003 22.7501 6.70552 22.6701C6.07773 22.5857 5.51093 22.4 5.05546 21.9445C4.59999 21.4891 4.41432 20.9223 4.32991 20.2945C4.24994 19.6997 4.24997 18.9505 4.25 18.052L4.25 15.0508C2.46371 14.0762 1.25 12.1806 1.25 10C1.25 6.82436 3.82436 4.25 7 4.25C7.08469 4.25 7.16899 4.25184 7.25285 4.25547Z" fill="currentColor"/>
</svg>
